<svg id="Component_13_4" data-name="Component 13 – 4" xmlns="http://www.w3.org/2000/svg" width="25.086" height="25.086" viewBox="0 0 25.086 25.086">
  <path id="Path_3" data-name="Path 3" d="M12.543,2.23a38.46,38.46,0,0,1,5.017.139,6.464,6.464,0,0,1,2.369.418A4.895,4.895,0,0,1,22.3,5.157a6.464,6.464,0,0,1,.418,2.369c0,1.254.139,1.672.139,5.017a38.46,38.46,0,0,1-.139,5.017A6.464,6.464,0,0,1,22.3,19.93,4.895,4.895,0,0,1,19.93,22.3a6.464,6.464,0,0,1-2.369.418c-1.254,0-1.672.139-5.017.139a38.46,38.46,0,0,1-5.017-.139A6.464,6.464,0,0,1,5.157,22.3,4.895,4.895,0,0,1,2.787,19.93a6.464,6.464,0,0,1-.418-2.369c0-1.254-.139-1.672-.139-5.017a38.46,38.46,0,0,1,.139-5.017,6.464,6.464,0,0,1,.418-2.369,5.005,5.005,0,0,1,.976-1.394,2.356,2.356,0,0,1,1.394-.976,6.464,6.464,0,0,1,2.369-.418,38.46,38.46,0,0,1,5.017-.139m0-2.23A41.179,41.179,0,0,0,7.387.139,8.6,8.6,0,0,0,4.32.7a5.456,5.456,0,0,0-2.23,1.394A5.456,5.456,0,0,0,.7,4.32,6.35,6.35,0,0,0,.139,7.387,41.179,41.179,0,0,0,0,12.543,41.179,41.179,0,0,0,.139,17.7,8.6,8.6,0,0,0,.7,20.766,5.456,5.456,0,0,0,2.091,23a5.456,5.456,0,0,0,2.23,1.394,8.6,8.6,0,0,0,3.066.557,41.18,41.18,0,0,0,5.157.139,41.18,41.18,0,0,0,5.157-.139,8.6,8.6,0,0,0,3.066-.557,5.847,5.847,0,0,0,3.624-3.624,8.6,8.6,0,0,0,.557-3.066c0-1.394.139-1.812.139-5.157a41.18,41.18,0,0,0-.139-5.157,8.6,8.6,0,0,0-.557-3.066A5.456,5.456,0,0,0,23,2.091,5.456,5.456,0,0,0,20.766.7,8.6,8.6,0,0,0,17.7.139,41.179,41.179,0,0,0,12.543,0m0,6.132a6.308,6.308,0,0,0-6.411,6.411,6.411,6.411,0,1,0,6.411-6.411m0,10.592a4.106,4.106,0,0,1-4.181-4.181,4.106,4.106,0,0,1,4.181-4.181,4.106,4.106,0,0,1,4.181,4.181,4.106,4.106,0,0,1-4.181,4.181m6.69-12.4a1.533,1.533,0,1,0,1.533,1.533A1.547,1.547,0,0,0,19.233,4.32" fill="#fff" fill-rule="evenodd"/>
</svg>
