<svg id="Component_12_4" data-name="Component 12 – 4" xmlns="http://www.w3.org/2000/svg" width="25.086" height="25" viewBox="0 0 25.086 25">
  <rect id="Rectangle_393" data-name="Rectangle 393" width="25" height="25" fill="none"/>
  <path id="Path_2" data-name="Path 2" d="M45.944,22.348A14.5,14.5,0,0,0,60.578,7.714v-.7a11.329,11.329,0,0,0,2.509-2.648,11.569,11.569,0,0,1-2.927.836,5.422,5.422,0,0,0,2.23-2.787,12.783,12.783,0,0,1-3.205,1.254A4.977,4.977,0,0,0,55.421,2a5.236,5.236,0,0,0-5.157,5.157A2.717,2.717,0,0,0,50.4,8.272,14.409,14.409,0,0,1,39.812,2.836a5.337,5.337,0,0,0-.7,2.648,5.537,5.537,0,0,0,2.23,4.32,4.7,4.7,0,0,1-2.369-.7h0a5.093,5.093,0,0,0,4.181,5.017,4.3,4.3,0,0,1-1.394.139,2.372,2.372,0,0,1-.976-.139,5.28,5.28,0,0,0,4.878,3.624,10.523,10.523,0,0,1-6.411,2.23A3.858,3.858,0,0,1,38,19.839a13.155,13.155,0,0,0,7.944,2.509" transform="translate(-38 1.135)" fill="#fff" fill-rule="evenodd"/>
</svg>
